<?xml version="1.0" standalone="no"?>
<!DOCTYPE svg PUBLIC "-//W3C//DTD SVG 20010904//EN"
 "http://www.w3.org/TR/2001/REC-SVG-20010904/DTD/svg10.dtd">
<svg version="1.0" xmlns="http://www.w3.org/2000/svg"
 width="90.000000pt" height="159.000000pt" viewBox="0 0 90.000000 159.000000"
 preserveAspectRatio="xMidYMid meet">
<metadata>
Created by potrace 1.16, written by Peter Selinger 2001-2019
</metadata>
<g transform="translate(0.000000,159.000000) scale(0.100000,-0.100000)"
fill="#000000" stroke="none">
<path d="M345 1545 c-17 -117 -74 -225 -157 -300 -48 -43 -142 -95 -172 -95
-14 0 -16 -19 -16 -130 l0 -130 109 0 110 0 3 -302 c3 -287 5 -306 26 -359 31
-78 90 -142 165 -179 85 -41 143 -50 328 -50 l159 0 0 154 0 154 -105 4 c-117
4 -146 17 -177 79 -16 29 -18 65 -18 267 l0 232 145 0 145 0 0 145 0 145 -145
0 -145 0 0 205 0 205 -124 0 -124 0 -7 -45z"/>
</g>
</svg>
